<mxfile host="app.diagrams.net" modified="2024-07-17T11:46:23.866Z" agent="Mozilla/5.0 (Linux; Android 10; K) AppleWebKit/537.36 (KHTML, like Gecko) Chrome/126.0.0.0 Mobile Safari/537.36" version="24.7.1" etag="0xB2iGJrLnK5CLwvonkP" type="github">
  <diagram name="PÃ¡gina-1" id="s_xhnWEnsFjFR21wN2Xy">
    <mxGraphModel>
      <root>
        <mxCell id="0" />
        <mxCell id="1" parent="0" />
      </root>
    </mxGraphModel>
  </diagram>
</mxfile>
